<svg xmlns="http://www.w3.org/2000/svg" xmlns:xlink="http://www.w3.org/1999/xlink" width="73.2" height="61" viewBox="0 0 73.2 61">
  <defs>
    <linearGradient id="linear-gradient" y1="30.5" x2="73.2" y2="30.5" gradientUnits="userSpaceOnUse">
      <stop offset="0" stop-color="#c93125"/>
      <stop offset="1" stop-color="#c32365"/>
    </linearGradient>
    <linearGradient id="linear-gradient-2" x1="18.3" y1="36.9621" x2="54.9" y2="36.9621" xlink:href="#linear-gradient"/>
    <linearGradient id="linear-gradient-3" x1="35.38" y1="41.48" x2="37.82" y2="41.48" xlink:href="#linear-gradient"/>
    <linearGradient id="linear-gradient-4" x1="29.28" y1="41.48" x2="31.72" y2="41.48" xlink:href="#linear-gradient"/>
    <linearGradient id="linear-gradient-5" x1="41.48" y1="41.48" x2="43.92" y2="41.48" xlink:href="#linear-gradient"/>
  </defs>
  <g id="Layer_2" data-name="Layer 2">
    <g id="Capa_1" data-name="Capa 1">
      <g>
        <path d="M71.98,52.46H68.32V21.5482A4.2752,4.2752,0,0,0,70.76,17.69V8.5058L70.7589,8.48V8.4706l-.001-.0152a1.2129,1.2129,0,0,0-.21-.6036L65.675.5432A1.22,1.22,0,0,0,64.66,0H8.54A1.22,1.22,0,0,0,7.525.5432L2.6535,7.8512a1.2129,1.2129,0,0,0-.21.6035L2.4424,8.47v.0088l-.001.0264V17.69a4.2752,4.2752,0,0,0,2.44,3.8582V52.46H1.22A1.22,1.22,0,0,0,0,53.68v3.05A4.2749,4.2749,0,0,0,4.27,61H68.93a4.2749,4.2749,0,0,0,4.27-4.27V53.68A1.22,1.22,0,0,0,71.98,52.46ZM68.32,11.91v5.78a1.832,1.832,0,0,1-1.83,1.83H65.27a1.832,1.832,0,0,1-1.83-1.83V9.76h4.88ZM14.03,21.96h1.22a4.2571,4.2571,0,0,0,3.05-1.2845A4.2571,4.2571,0,0,0,21.35,21.96h1.22a4.2571,4.2571,0,0,0,3.05-1.2845A4.2571,4.2571,0,0,0,28.67,21.96h1.22a4.2571,4.2571,0,0,0,3.05-1.2845A4.2571,4.2571,0,0,0,35.99,21.96h1.22a4.2571,4.2571,0,0,0,3.05-1.2845A4.2571,4.2571,0,0,0,43.31,21.96h1.22a4.2571,4.2571,0,0,0,3.05-1.2845A4.2571,4.2571,0,0,0,50.63,21.96h1.22a4.2571,4.2571,0,0,0,3.05-1.2845A4.2571,4.2571,0,0,0,57.95,21.96h1.22a4.2571,4.2571,0,0,0,3.05-1.2845A4.2571,4.2571,0,0,0,65.27,21.96h.61v30.5H48.8a1.2188,1.2188,0,0,0-.5456.1289L46.0719,53.68H27.1281l-2.1825-1.0911A1.2188,1.2188,0,0,0,24.4,52.46H7.32V21.96h.61a4.2571,4.2571,0,0,0,3.05-1.2845A4.2571,4.2571,0,0,0,14.03,21.96ZM12.2,17.69V9.76h4.88v7.93a1.832,1.832,0,0,1-1.83,1.83H14.03A1.832,1.832,0,0,1,12.2,17.69Zm7.32,0V9.76H24.4v7.93a1.832,1.832,0,0,1-1.83,1.83H21.35A1.832,1.832,0,0,1,19.52,17.69Zm7.32,0V9.76h4.88v7.93a1.832,1.832,0,0,1-1.83,1.83H28.67A1.832,1.832,0,0,1,26.84,17.69Zm7.32,0V9.76h4.88v7.93a1.832,1.832,0,0,1-1.83,1.83H35.99A1.832,1.832,0,0,1,34.16,17.69Zm7.32,0V9.76h4.88v7.93a1.832,1.832,0,0,1-1.83,1.83H43.31A1.832,1.832,0,0,1,41.48,17.69Zm7.32,0V9.76h4.88v7.93a1.832,1.832,0,0,1-1.83,1.83H50.63A1.832,1.832,0,0,1,48.8,17.69Zm7.32,0V9.76H61v7.93a1.832,1.832,0,0,1-1.83,1.83H57.95A1.832,1.832,0,0,1,56.12,17.69ZM9.1929,2.44H64.0071L67.26,7.32H5.94ZM4.88,17.69V9.76H9.76v7.93a1.832,1.832,0,0,1-1.83,1.83H6.71A1.832,1.832,0,0,1,4.88,17.69ZM70.76,56.73a1.832,1.832,0,0,1-1.83,1.83H4.27a1.832,1.832,0,0,1-1.83-1.83V54.9H24.1119l2.1825,1.0911a1.2188,1.2188,0,0,0,.5456.1289H46.36a1.2185,1.2185,0,0,0,.5456-.1289L49.0881,54.9H70.76Z" fill="url(#linear-gradient)"/>
        <path d="M24.4364,47.8759A1.22,1.22,0,0,0,25.62,48.8H47.58a1.22,1.22,0,0,0,1.1835-.9241L52.1925,34.16H54.9V31.72H47.424l2.4909-5.6045-2.23-.9913L44.7539,31.72H28.4461l-2.9312-6.5955-2.23.9913L25.776,31.72H18.3v2.44h2.7075ZM26.86,34.16l1.3047,2.9355,2.23-.9913L29.5306,34.16H43.6694l-.8643,1.9445,2.23.9913L46.34,34.16h3.3379l-3.05,12.2H26.5725l-3.05-12.2Z" fill="url(#linear-gradient-2)"/>
        <rect x="35.38" y="39.04" width="2.44" height="4.88" fill="url(#linear-gradient-3)"/>
        <rect x="29.28" y="39.04" width="2.44" height="4.88" fill="url(#linear-gradient-4)"/>
        <rect x="41.48" y="39.04" width="2.44" height="4.88" fill="url(#linear-gradient-5)"/>
      </g>
    </g>
  </g>
</svg>
