<svg xmlns="http://www.w3.org/2000/svg" xmlns:xlink="http://www.w3.org/1999/xlink" width="60.702" height="60.9575" viewBox="0 0 60.702 60.9575">
  <defs>
    <linearGradient id="linear-gradient" x1="-13.637" y1="-9.9818" x2="68.803" y2="67.0582" gradientUnits="userSpaceOnUse">
      <stop offset="0" stop-color="#c93125"/>
      <stop offset="1" stop-color="#c32365"/>
    </linearGradient>
    <linearGradient id="linear-gradient-2" x1="-0.076" y1="-24.4934" x2="82.364" y2="52.5466" xlink:href="#linear-gradient"/>
    <linearGradient id="linear-gradient-3" x1="0.4369" y1="-25.0422" x2="82.8769" y2="51.9978" xlink:href="#linear-gradient"/>
    <linearGradient id="linear-gradient-4" x1="-14.5463" y1="-9.0088" x2="67.8937" y2="68.0312" xlink:href="#linear-gradient"/>
    <linearGradient id="linear-gradient-5" x1="-29.1577" y1="6.6267" x2="53.2823" y2="83.6667" xlink:href="#linear-gradient"/>
    <linearGradient id="linear-gradient-7" x1="-21.7691" y1="-1.2797" x2="60.6709" y2="75.7603" xlink:href="#linear-gradient"/>
  </defs>
  <g id="Layer_2" data-name="Layer 2">
    <g id="Capa_1" data-name="Capa 1">
      <g>
        <path d="M2.4583,14.5978h3.616V25.7116a.3586.3586,0,0,0,.3583.3582h4.4839a.3587.3587,0,0,0,.3585-.3582V14.5976h4.1975a.3584.3584,0,0,0,.3582-.3578l.0017-4.3342a.3618.3618,0,0,0-.1865-.3145.385.385,0,0,0-.1844-.0437H11.275V6.8329A2.1236,2.1236,0,0,1,11.6625,5.34a2.1153,2.1153,0,0,1,1.67-.523l2.302-.0009a.3585.3585,0,0,0,.3582-.3582V.4336a.3587.3587,0,0,0-.3576-.3582L12.2155.07A6.0627,6.0627,0,0,0,7.7443,1.7814a6.4141,6.4141,0,0,0-1.67,4.596v3.17H2.4583A.3586.3586,0,0,0,2.1,9.9058V14.24A.3586.3586,0,0,0,2.4583,14.5978Z" fill="url(#linear-gradient)"/>
        <path d="M47.908,12.3461,39.7409,7.8774a1.5,1.5,0,0,0-2.22,1.3161v8.8606a1.4973,1.4973,0,0,0,2.2106,1.3211l8.1674-4.3917a1.5,1.5,0,0,0,.0093-2.6374ZM39.6871,16.94V10.3171l6.1039,3.34Z" fill="url(#linear-gradient-2)"/>
        <path d="M60.43,6.6086l-.0016-.017c-.0313-.2975-.343-2.9442-1.63-4.29A6.0159,6.0159,0,0,0,54.8144.4332c-.0671-.0076-.1286-.0146-.1836-.0219L54.5662.4045C49.679.0491,42.2982.0006,42.2243,0l-.0065,0-.0064,0c-.0739,0-7.4547.0488-12.386.4042L29.76.4113c-.0525.007-.11.0135-.1731.0208a5.864,5.864,0,0,0-3.961,1.9258A8.86,8.86,0,0,0,24.01,6.5707l-.0042.0379c-.011.1238-.2719,3.0714-.2719,6.0306v2.7663c0,2.9591.2609,5.9068.2719,6.0308l.002.0187a8.3716,8.3716,0,0,0,1.6234,4.2376,6.1388,6.1388,0,0,0,4.1175,1.8418c.15.0172.28.0318.3681.0474l.0855.0118c2.8218.2685,11.6692.4008,12.0443.4062l.0113,0,.0113,0c.0739,0,7.4543-.0489,12.3415-.4042l.0647-.0068c.0617-.0082.1311-.0155.2072-.0234A5.7281,5.7281,0,0,0,58.81,25.6867a8.8588,8.8588,0,0,0,1.6161-4.2128l.0042-.0379c.0111-.124.2722-3.0714.2722-6.03V12.6392C60.7017,9.68,60.4409,6.7327,60.43,6.6086Zm-1.8945,8.7969c0,2.7388-.2391,5.56-.2617,5.8184a6.8769,6.8769,0,0,1-1.0627,3.001,3.5631,3.5631,0,0,1-2.5567,1.1863c-.0835.0087-.1608.0171-.2307.0259-4.727.3418-11.8291.3943-12.1563.3963-.3669-.0054-9.0849-.1388-11.8207-.3929-.14-.0228-.2916-.04-.4513-.0584a4.051,4.051,0,0,1-2.7705-1.1572l-.02-.0215a6.2411,6.2411,0,0,1-1.0419-2.971c-.0172-.1957-.2625-3.05-.2625-5.8269V12.6392c0-2.7358.2386-5.5534.2617-5.8177A6.7384,6.7384,0,0,1,27.2247,3.82a3.7381,3.7381,0,0,1,2.6109-1.2356c.0632-.0073.1222-.0141.1765-.0212,4.7959-.3435,11.9491-.3945,12.2057-.3965.2567.0017,7.4073.053,12.1606.3965.0583.0074.1221.0147.1906.0226a3.8794,3.8794,0,0,1,2.6532,1.2018l.0087.0093A6.341,6.341,0,0,1,58.2728,6.811c.0163.1848.2625,3.045.2625,5.8282Z" fill="url(#linear-gradient-3)"/>
        <path d="M51.441,34.7075v-1.75h-3.5v19.25a5.25,5.25,0,1,1-5.25-5.25h1.75v-3.5h-1.75a8.75,8.75,0,1,0,8.75,8.75V41.6908a8.6938,8.6938,0,0,0,5.25,1.7667h1.75v-3.5h-1.75A5.2552,5.2552,0,0,1,51.441,34.7075Z" fill="url(#linear-gradient-4)"/>
        <path d="M19.8665,32.9575H8.1335A8.1427,8.1427,0,0,0,0,41.091V52.8239a8.1428,8.1428,0,0,0,8.1335,8.1336H19.8664A8.1428,8.1428,0,0,0,28,52.824V41.091A8.1427,8.1427,0,0,0,19.8665,32.9575Zm5.946,19.8664a5.9528,5.9528,0,0,1-5.946,5.9461H8.1335a5.9528,5.9528,0,0,1-5.946-5.946V41.091a5.9527,5.9527,0,0,1,5.946-5.946H19.8664a5.9527,5.9527,0,0,1,5.9461,5.946Z" fill="url(#linear-gradient-5)"/>
        <path d="M14,39.4106a7.5469,7.5469,0,1,0,7.5469,7.5469A7.5554,7.5554,0,0,0,14,39.4106Zm0,12.9062a5.3594,5.3594,0,1,1,5.3594-5.3593A5.3655,5.3655,0,0,1,14,52.3168Z" fill="url(#linear-gradient-5)"/>
        <circle cx="21.6563" cy="39.3012" r="1.0938" fill="url(#linear-gradient-7)"/>
      </g>
    </g>
  </g>
</svg>
